<?xml version="1.0" ?><svg data-name="Layer 1" id="Layer_1" viewBox="0 0 32 32" xmlns="http://www.w3.org/2000/svg" xmlns:xlink="http://www.w3.org/1999/xlink"><defs><style>.cls-1{fill:url(#linear-gradient);}.cls-2{fill:url(#linear-gradient-2);}.cls-3{fill:#f8edeb;}</style><linearGradient gradientUnits="userSpaceOnUse" id="linear-gradient" x1="6.65" x2="27.27" y1="6.65" y2="27.27"><stop offset="0" stop-color="#ffba49"/><stop offset="0.63" stop-color="#f7a129"/><stop offset="1" stop-color="#f4971c"/></linearGradient><linearGradient id="linear-gradient-2" x1="6" x2="12" xlink:href="#linear-gradient" y1="5" y2="5"/></defs><path class="cls-1" d="M23.5,2h-12a.47.47,0,0,0-.35.15l-5,5A.47.47,0,0,0,6,7.5v20A2.5,2.5,0,0,0,8.5,30h15A2.5,2.5,0,0,0,26,27.5V4.5A2.5,2.5,0,0,0,23.5,2Z"/><path class="cls-2" d="M11.69,2a.47.47,0,0,0-.54.11l-5,5A.47.47,0,0,0,6,7.69.5.5,0,0,0,6.5,8h3A2.5,2.5,0,0,0,12,5.5v-3A.5.5,0,0,0,11.69,2Z"/><path class="cls-3" d="M10.5,12h2a.5.5,0,0,0,0-1h-2A1.5,1.5,0,0,0,9,12.5V15a1.5,1.5,0,0,0,1.5,1.5h1a.5.5,0,0,1,.5.5v2.5a.5.5,0,0,1-.5.5h-2a.5.5,0,0,0,0,1h2A1.5,1.5,0,0,0,13,19.5V17a1.5,1.5,0,0,0-1.5-1.5h-1A.5.5,0,0,1,10,15V12.5A.5.5,0,0,1,10.5,12Z"/><path class="cls-3" d="M22.5,16h-1a.5.5,0,0,0,0,1H22v2a1,1,0,0,1-2,0V13a1,1,0,0,1,2,0,.5.5,0,0,0,1,0,2,2,0,0,0-4,0v6a2,2,0,0,0,4,0V16.5A.5.5,0,0,0,22.5,16Z"/><path class="cls-3" d="M17.58,11a.48.48,0,0,0-.57.41l-1,6-1-6a.48.48,0,0,0-.57-.41.49.49,0,0,0-.41.57l1.5,9a.5.5,0,0,0,1,0l1.5-9A.49.49,0,0,0,17.58,11Z"/></svg>